<?xml version="1.0" standalone="no"?><!DOCTYPE svg PUBLIC "-//W3C//DTD SVG 1.1//EN" "http://www.w3.org/Graphics/SVG/1.1/DTD/svg11.dtd"><svg t="1701701597268" class="icon" viewBox="0 0 1024 1024" version="1.1" xmlns="http://www.w3.org/2000/svg" p-id="16579" xmlns:xlink="http://www.w3.org/1999/xlink" width="200" height="200"><path d="M896 448v224s-5.152 129.888-47.584 187.84C800.544 925.184 732.192 992 544 992c-127.04 0-170.592-10.08-240.224-99.2s-199.712-286.08-224.256-364.384S63.424 408.96 128 384c92.448-35.744 194.976 127.744 192 128V160c0-90.784 60.8-96 96-96a60.352 60.352 0 0 1 48 18.56S473.312 32 544 32a121.344 121.344 0 0 1 96 34.08A144.864 144.864 0 0 1 704 64c49.696 11.776 61.184 48 64 96a782.208 782.208 0 0 1 0 96h32c122.208 0 96 192 96 192z m-64 32c0-139.68-6.4-160-32-160a40.256 40.256 0 0 0-32 32v160a60.448 60.448 0 0 1-32 32c-18.688 3.2-32-32-32-32s0.48-271.04 0-320c-0.384-39.904 3.2-64-32-64-36.736 0-32 64-32 64v288a67.2 67.2 0 0 1-25.856 32.544A109.28 109.28 0 0 1 576 480V128a27.776 27.776 0 0 0-30.848-32.448C502.688 95.552 512 160 512 160v320a102.048 102.048 0 0 1-35.904 32.544A71.552 71.552 0 0 1 448 480V192s8.32-64-32-64c-41.92 0-32 64-32 64v320s-8.864 124.8-32 128-135.264-193.728-192-192c-37.824 1.184-35.488 49.792-11.488 95.424C184.096 611.2 259.2 712.16 320 800c62.144 89.984 102.88 121.792 224 128 56.384 2.88 184.192-14.272 244.256-92.256C844.416 762.816 832 647.872 832 480z" fill="#ffffff" p-id="16580"></path></svg>