<?xml version="1.0" standalone="no"?><!DOCTYPE svg PUBLIC "-//W3C//DTD SVG 1.1//EN" "http://www.w3.org/Graphics/SVG/1.1/DTD/svg11.dtd"><svg t="1701701639839" class="icon" viewBox="0 0 1024 1024" version="1.1" xmlns="http://www.w3.org/2000/svg" p-id="18681" xmlns:xlink="http://www.w3.org/1999/xlink" width="200" height="200"><path d="M303.146667 128.042667l4.394666 0.170666 4.352 0.298667 4.309334 0.384 4.266666 0.469333 4.266667 0.597334 4.224 0.682666 4.181333 0.810667 4.138667 0.896 4.096 1.024 4.096 1.109333 4.010667 1.194667 3.968 1.28 3.968 1.408 3.882666 1.450667 3.84 1.578666 3.797334 1.664 3.754666 1.749334 3.712 1.834666 3.669334 1.962667 3.584 2.005333 3.541333 2.090667 3.498667 2.176 3.413333 2.261333 3.370667 2.346667 3.328 2.389333 3.242666 2.517334 3.2 2.56 3.114667 2.645333 3.072 2.730667 2.986667 2.773333 2.944 2.858667 2.858666 2.944 2.773334 2.986666 2.730666 3.072 2.645334 3.114667 2.56 3.2 2.517333 3.242667 2.389333 3.328 2.346667 3.370666 2.261333 3.413334 2.176 3.498666 2.090667 3.541334 2.005333 3.584 1.962667 3.669333 1.834667 3.712 1.749333 3.754667 1.664 3.797333 1.578667 3.84 1.450666 3.882667 1.408 3.968 1.28 3.968 1.194667 4.010666 1.109333 4.096 1.024 4.096 0.896 4.138667 0.810667 4.181333 0.682667 4.224 0.597333 4.266667 0.469333 4.266667 0.384 4.309333 0.298667 4.352 0.170667 4.394667 0.042666 4.394666v145.194667l-0.042666 1.322667-0.085334 1.28-0.170666 1.28-0.213334 1.28-0.298666 1.237333-0.341334 1.194667-0.384 1.194666-0.469333 1.152-0.512 1.152-0.554667 1.109334-0.64 1.066666-0.64 1.024-0.725333 0.981334-0.768 0.981333-0.810667 0.938667-0.810666 0.896-0.896 0.810666-0.938667 0.810667-0.981333 0.768-0.981334 0.725333-1.024 0.64-1.066666 0.64-1.109334 0.554667-1.152 0.512-1.152 0.469333-1.194666 0.384-1.194667 0.341334-1.237333 0.298666-1.28 0.213334-1.28 0.170666-1.28 0.085334-1.322667 0.042666H298.581333l-4.394666-0.042666-4.394667-0.170667-4.352-0.298667-4.309333-0.384-4.266667-0.469333-4.266667-0.597333-4.224-0.682667-4.181333-0.810667-4.138667-0.896-4.096-1.024-4.096-1.109333-4.010666-1.194667-3.968-1.28-3.968-1.408-3.882667-1.450666-3.84-1.578667-3.797333-1.664-3.754667-1.749333-3.712-1.834667-3.669333-1.962667-3.584-2.005333-3.541334-2.090667-3.498666-2.176-3.413334-2.261333-3.370666-2.346667-3.328-2.389333-3.242667-2.517333-3.2-2.56-3.114667-2.645334-3.072-2.730666-2.986666-2.773334-2.944-2.858666-2.858667-2.944-2.773333-2.986667-2.730667-3.072-2.645333-3.114667-2.56-3.2-2.517334-3.242666-2.389333-3.328-2.346667-3.370667-2.261333-3.413333-2.176-3.498667-2.090667-3.541333-2.005333-3.584-1.962667-3.669334-1.834666-3.712-1.749334-3.754666-1.664-3.797334-1.578666-3.84-1.450667-3.882666-1.408-3.968-1.28-3.968-1.194667-4.010667-1.109333-4.096-1.024-4.096-0.896-4.138667-0.810667-4.181333-0.682666-4.224-0.597334-4.266667-0.469333-4.266666-0.384-4.309334-0.298667-4.352-0.170666-4.394666L128 298.752v-0.170667l0.042667-4.394666 0.170666-4.394667 0.298667-4.352 0.384-4.309333 0.469333-4.266667 0.597334-4.266667 0.682666-4.224 0.810667-4.181333 0.896-4.138667 1.024-4.096 1.109333-4.096 1.194667-4.010666 1.28-3.968 1.408-3.968 1.450667-3.882667 1.578666-3.84 1.664-3.797333 1.749334-3.754667 1.834666-3.712 1.962667-3.669333 2.005333-3.584 2.090667-3.541334 2.176-3.498666 2.261333-3.413334 2.346667-3.370666 2.389333-3.328 2.517334-3.242667 2.56-3.2 2.645333-3.114667 2.730667-3.072 2.773333-2.986666 2.858667-2.944 2.944-2.858667 2.986666-2.773333 3.072-2.730667 3.114667-2.645333 3.2-2.56 3.242667-2.517334 3.328-2.389333 3.370666-2.346667 3.413334-2.261333 3.498666-2.176 3.541334-2.090667 3.584-2.005333 3.669333-1.962667 3.712-1.834666 3.754667-1.749334 3.797333-1.664 3.84-1.578666 3.882667-1.450667 3.968-1.408 3.968-1.28 4.010666-1.194667 4.096-1.109333 4.096-1.024 4.138667-0.896 4.181333-0.810667 4.224-0.682666 4.266667-0.597334 4.266667-0.469333 4.309333-0.384 4.352-0.298667 4.394667-0.170666L298.581333 128h0.170667l4.394667 0.042667z m-7.893334 42.666666l-3.285333 0.128-3.285333 0.213334-3.242667 0.298666-3.2 0.341334-3.2 0.469333-3.157333 0.512-3.114667 0.597333-3.114667 0.682667-3.072 0.725333-3.029333 0.853334-3.029333 0.896-2.986667 0.938666-2.944 1.066667-2.901333 1.109333-2.901334 1.152-2.816 1.237334-2.816 1.322666-2.773333 1.365334-2.730667 1.450666-2.730666 1.536-2.645334 1.536-2.602666 1.664-2.56 1.664-2.56 1.792-2.474667 1.792-2.432 1.877334-2.432 1.92-2.346667 2.005333-2.304 2.048-2.218666 2.090667-2.218667 2.133333-2.133333 2.218667-2.090667 2.218666-2.048 2.304-2.005333 2.346667-1.92 2.432-1.877334 2.432-1.792 2.474667-1.792 2.56-1.664 2.56-1.664 2.602666-1.536 2.645334-1.536 2.730666-1.408 2.730667-1.408 2.773333-1.322666 2.816-1.237334 2.816-1.152 2.901334-1.109333 2.901333-1.066667 2.944-0.938666 2.986667-0.896 3.029333-0.853334 3.029333-0.725333 3.072-0.682667 3.114667-0.597333 3.114667-0.512 3.157333-0.469333 3.2-0.341334 3.2-0.298666 3.242667-0.213334 3.285333-0.128 3.285333L170.666667 298.666667l0.042666 3.413333 0.128 3.285333 0.213334 3.285334 0.298666 3.242666 0.341334 3.2 0.469333 3.2 0.512 3.157334 0.597333 3.114666 0.682667 3.114667 0.725333 3.072 0.853334 3.029333 0.896 3.029334 0.938666 2.986666 1.066667 2.944 1.109333 2.901334 1.152 2.901333 1.237334 2.816 1.322666 2.816 1.408 2.773333 1.408 2.730667 1.536 2.730667 1.536 2.645333 1.664 2.602667 1.664 2.56 1.792 2.56 1.792 2.474666 1.877334 2.432 1.92 2.432 2.005333 2.346667 2.048 2.304 2.090667 2.218667 2.133333 2.218666 2.218667 2.133334 2.218666 2.090666 2.304 2.048 2.346667 2.005334 2.432 1.92 2.432 1.877333 2.474667 1.792 2.56 1.792 2.56 1.664 2.602666 1.664 2.645334 1.536 2.730666 1.536 2.730667 1.450667 2.773333 1.365333 2.816 1.322667 2.816 1.237333 2.901334 1.152 2.901333 1.109333 2.944 1.066667 2.986667 0.938667 3.029333 0.896 3.029333 0.853333 3.072 0.725333 3.114667 0.682667 3.114667 0.597333 3.157333 0.512 3.2 0.469334 3.2 0.341333 3.242667 0.298667 3.285333 0.213333 3.285333 0.128 3.584 0.042667H426.666667V298.837333l-0.042667-3.584-0.128-3.285333-0.213333-3.285333-0.298667-3.242667-0.341333-3.2-0.469334-3.2-0.512-3.157333-0.597333-3.114667-0.682667-3.114667-0.725333-3.072-0.853333-3.029333-0.896-3.029333-0.938667-2.986667-1.066667-2.944-1.109333-2.901333-1.152-2.901334-1.237333-2.816-1.322667-2.816-1.365333-2.773333-1.450667-2.730667-1.536-2.730666-1.536-2.645334-1.664-2.602666-1.664-2.56-1.792-2.56-1.792-2.474667-1.877333-2.432-1.92-2.432-2.005334-2.346667-2.048-2.304-2.090666-2.218666-2.133334-2.218667-2.218666-2.133333-2.218667-2.090667-2.304-2.048-2.346667-2.005333-2.432-1.92-2.432-1.877334-2.474666-1.792-2.56-1.792-2.56-1.664-2.602667-1.664-2.645333-1.536-2.730667-1.536-2.730667-1.450666-2.773333-1.365334-2.816-1.322666-2.816-1.237334-2.901333-1.152-2.901334-1.109333-2.944-1.066667-2.986666-0.938666-3.029334-0.896-3.029333-0.853334-3.072-0.725333-3.114667-0.682667-3.114666-0.597333-3.157334-0.512-3.2-0.469333-3.2-0.341334-3.242666-0.298666-3.285334-0.213334-3.285333-0.128L298.666667 170.666667l-3.413334 0.042666zM725.418667 128l4.394666 0.042667 4.394667 0.170666 4.352 0.298667 4.309333 0.384 4.266667 0.469333 4.266667 0.597334 4.224 0.682666 4.181333 0.810667 4.138667 0.896 4.096 1.024 4.096 1.109333 4.010666 1.194667 3.968 1.28 3.968 1.408 3.882667 1.450667 3.84 1.578666 3.797333 1.664 3.754667 1.749334 3.712 1.834666 3.669333 1.962667 3.584 2.005333 3.541334 2.090667 3.498666 2.176 3.413334 2.261333 3.370666 2.346667 3.328 2.389333 3.242667 2.517334 3.2 2.56 3.114667 2.645333 3.072 2.730667 2.986666 2.773333 2.944 2.858667 2.858667 2.944 2.773333 2.986666 2.730667 3.072 2.645333 3.114667 2.56 3.2 2.517334 3.242667 2.389333 3.328 2.346667 3.370666 2.261333 3.413334 2.176 3.498666 2.090667 3.541334 2.005333 3.584 1.962667 3.669333 1.834666 3.712 1.749334 3.754667 1.664 3.797333 1.578666 3.84 1.450667 3.882667 1.408 3.968 1.28 3.968 1.194667 4.010666 1.109333 4.096 1.024 4.096 0.896 4.138667 0.810667 4.181333 0.682666 4.224 0.597334 4.266667 0.469333 4.266667 0.384 4.309333 0.298667 4.352 0.170666 4.394667 0.042667 4.394666v0.170667l-0.042667 4.394667-0.170666 4.394666-0.298667 4.352-0.384 4.309334-0.469333 4.266666-0.597334 4.266667-0.682666 4.224-0.810667 4.181333-0.896 4.138667-1.024 4.096-1.109333 4.096-1.194667 4.010667-1.28 3.968-1.408 3.968-1.450667 3.882666-1.578666 3.84-1.664 3.797334-1.749334 3.754666-1.834666 3.712-1.962667 3.669334-2.005333 3.584-2.090667 3.541333-2.176 3.498667-2.261333 3.413333-2.346667 3.370667-2.389333 3.328-2.517334 3.242666-2.56 3.2-2.645333 3.114667-2.730667 3.072-2.773333 2.986667-2.858667 2.944-2.944 2.858666-2.986666 2.773334-3.072 2.730666-3.114667 2.645334-3.2 2.56-3.242667 2.517333-3.328 2.389333-3.370666 2.346667-3.413334 2.261333-3.498666 2.176-3.541334 2.090667-3.584 2.005333-3.669333 1.962667-3.712 1.834667-3.754667 1.749333-3.797333 1.664-3.84 1.578667-3.882667 1.450666-3.968 1.408-3.968 1.28-4.010666 1.194667-4.096 1.109333-4.096 1.024-4.138667 0.896-4.181333 0.810667-4.224 0.682667-4.266667 0.597333-4.266667 0.469333-4.309333 0.384-4.352 0.298667-4.394667 0.170667-4.394666 0.042666h-145.194667l-1.322667-0.042666-1.28-0.085334-1.28-0.170666-1.28-0.213334-1.237333-0.298666-1.194667-0.341334-1.194666-0.384-1.152-0.469333-1.152-0.512-1.109334-0.554667-1.066666-0.64-1.024-0.64-0.981334-0.725333-0.981333-0.768-0.938667-0.810667-0.896-0.810666-0.810666-0.896-0.810667-0.938667-0.768-0.981333-0.725333-0.981334-0.64-1.024-0.64-1.066666-0.554667-1.109334-0.512-1.152-0.469333-1.152-0.384-1.194666-0.341334-1.194667-0.298666-1.237333-0.213334-1.28-0.170666-1.28-0.085334-1.28-0.042666-1.322667V298.581333l0.042666-4.394666 0.170667-4.394667 0.298667-4.352 0.384-4.309333 0.469333-4.266667 0.597333-4.266667 0.682667-4.224 0.810667-4.181333 0.896-4.138667 1.024-4.096 1.109333-4.096 1.194667-4.010666 1.28-3.968 1.408-3.968 1.450666-3.882667 1.578667-3.84 1.664-3.797333 1.749333-3.754667 1.834667-3.712 1.962667-3.669333 2.005333-3.584 2.090667-3.541334 2.176-3.498666 2.261333-3.413334 2.346667-3.370666 2.389333-3.328 2.517333-3.242667 2.56-3.2 2.645334-3.114667 2.730666-3.072 2.773334-2.986666 2.858666-2.944 2.944-2.858667 2.986667-2.773333 3.072-2.730667 3.114667-2.645333 3.2-2.56 3.242666-2.517334 3.328-2.389333 3.370667-2.346667 3.413333-2.261333 3.498667-2.176 3.541333-2.090667 3.584-2.005333 3.669334-1.962667 3.712-1.834666 3.754666-1.749334 3.797334-1.664 3.84-1.578666 3.882666-1.450667 3.968-1.408 3.968-1.28 4.010667-1.194667 4.096-1.109333 4.096-1.024 4.138667-0.896 4.181333-0.810667 4.224-0.682666 4.266667-0.597334 4.266666-0.469333 4.309334-0.384 4.352-0.298667 4.394666-0.170666 4.394667-0.042667h0.170667z m-3.498667 42.709333l-3.285333 0.128-3.285334 0.213334-3.242666 0.298666-3.2 0.341334-3.2 0.469333-3.157334 0.512-3.114666 0.597333-3.114667 0.682667-3.072 0.725333-3.029333 0.853334-3.029334 0.896-2.986666 0.938666-2.944 1.066667-2.901334 1.109333-2.901333 1.152-2.816 1.237334-2.816 1.322666-2.773333 1.365334-2.730667 1.450666-2.730667 1.536-2.645333 1.536-2.602667 1.664-2.56 1.664-2.56 1.792-2.474666 1.792-2.432 1.877334-2.432 1.92-2.346667 2.005333-2.304 2.048-2.218667 2.090667-2.218666 2.133333-2.133334 2.218667-2.090666 2.218666-2.048 2.304-2.005334 2.346667-1.92 2.432-1.877333 2.432-1.792 2.474667-1.792 2.56-1.664 2.56-1.664 2.602666-1.536 2.688-1.536 2.688-1.408 2.730667-1.408 2.773333-1.322667 2.816-1.237333 2.816-1.152 2.901334-1.109333 2.901333-1.066667 2.944-0.938667 2.986667-0.896 3.029333-0.853333 3.029333-0.725333 3.072-0.682667 3.114667-0.597333 3.114667-0.512 3.157333-0.469334 3.2-0.341333 3.2-0.298667 3.242667-0.213333 3.285333-0.128 3.285333-0.042667 3.584V426.666667h127.829334l3.584-0.042667 3.285333-0.128 3.285333-0.213333 3.242667-0.298667 3.2-0.341333 3.2-0.469334 3.157333-0.512 3.114667-0.597333 3.114667-0.682667 3.072-0.725333 3.029333-0.853333 3.029333-0.896 2.986667-0.938667 2.944-1.066667 2.901333-1.109333 2.901334-1.152 2.816-1.237333 2.816-1.322667 2.773333-1.365333 2.730667-1.450667 2.730666-1.536 2.645334-1.536 2.602666-1.664 2.56-1.664 2.56-1.792 2.474667-1.792 2.432-1.877333 2.432-1.92 2.346667-2.005334 2.304-2.048 2.218666-2.090666 2.218667-2.133334 2.133333-2.218666 2.090667-2.218667 2.048-2.304 2.005333-2.346667 1.92-2.432 1.877334-2.432 1.792-2.474666 1.792-2.56 1.664-2.56 1.664-2.602667 1.536-2.645333 1.536-2.730667 1.450666-2.730667 1.365334-2.773333 1.322666-2.816 1.237334-2.816 1.152-2.901333 1.109333-2.901334 1.066667-2.944 0.938666-2.986666 0.896-3.029334 0.853334-3.029333 0.725333-3.072 0.682667-3.114667 0.597333-3.114666 0.512-3.157334 0.469333-3.2 0.341334-3.2 0.298666-3.242666 0.213334-3.285334 0.128-3.285333L853.333333 298.666667l-0.042666-3.413334-0.128-3.285333-0.213334-3.285333-0.298666-3.242667-0.341334-3.2-0.469333-3.2-0.512-3.157333-0.597333-3.114667-0.682667-3.114667-0.725333-3.072-0.853334-3.029333-0.896-3.029333-0.938666-2.986667-1.066667-2.944-1.109333-2.901333-1.152-2.901334-1.237334-2.816-1.322666-2.816-1.365334-2.773333-1.450666-2.730667-1.536-2.730666-1.536-2.645334-1.664-2.602666-1.664-2.56-1.792-2.56-1.792-2.474667-1.877334-2.432-1.92-2.432-2.005333-2.346667-2.048-2.304-2.090667-2.218666-2.133333-2.218667-2.218667-2.133333-2.218666-2.090667-2.304-2.048-2.346667-2.005333-2.432-1.92-2.432-1.877334-2.474667-1.792-2.56-1.792-2.56-1.664-2.602666-1.664-2.645334-1.536-2.730666-1.536-2.730667-1.450666-2.773333-1.365334-2.816-1.322666-2.816-1.237334-2.901334-1.152-2.901333-1.109333-2.944-1.066667-2.986667-0.938666-3.029333-0.896-3.029333-0.853334-3.072-0.725333-3.114667-0.682667-3.114667-0.597333-3.157333-0.512-3.2-0.469333-3.2-0.341334-3.242667-0.298666-3.285333-0.213334-3.285333-0.128L725.333333 170.666667l-3.413333 0.042666zM443.776 554.666667l1.322667 0.042666 1.28 0.085334 1.28 0.170666 1.28 0.213334 1.237333 0.298666 1.194667 0.341334 1.194666 0.384 1.152 0.469333 1.152 0.512 1.109334 0.554667 1.066666 0.64 1.024 0.64 0.981334 0.725333 0.981333 0.768 0.938667 0.810667 0.896 0.810666 0.810666 0.896 0.810667 0.938667 0.768 0.981333 0.725333 0.981334 0.64 1.024 0.64 1.066666 0.554667 1.109334 0.512 1.152 0.469333 1.152 0.384 1.194666 0.341334 1.194667 0.298666 1.237333 0.213334 1.28 0.170666 1.28 0.085334 1.28 0.042666 1.322667v145.194667l-0.042666 4.394666-0.170667 4.394667-0.298667 4.352-0.384 4.309333-0.469333 4.266667-0.597333 4.266667-0.682667 4.224-0.810667 4.181333-0.896 4.138667-1.024 4.096-1.109333 4.096-1.194667 4.010666-1.28 3.968-1.408 3.968-1.450666 3.882667-1.578667 3.84-1.664 3.797333-1.749333 3.754667-1.834667 3.712-1.962667 3.669333-2.005333 3.584-2.090667 3.541334-2.176 3.498666-2.261333 3.413334-2.346667 3.370666-2.389333 3.328-2.517333 3.242667-2.56 3.2-2.645334 3.114667-2.730666 3.072-2.773334 2.986666-2.858666 2.944-2.944 2.858667-2.986667 2.773333-3.072 2.730667-3.114667 2.645333-3.2 2.56-3.242666 2.517334-3.328 2.389333-3.370667 2.346667-3.413333 2.261333-3.498667 2.176-3.541333 2.090667-3.584 2.005333-3.669334 1.962667-3.712 1.834666-3.754666 1.749334-3.797334 1.664-3.84 1.578666-3.882666 1.450667-3.968 1.408-3.968 1.28-4.010667 1.194667-4.096 1.109333-4.096 1.024-4.138667 0.896-4.181333 0.810667-4.224 0.682666-4.266667 0.597334-4.266666 0.469333-4.309334 0.384-4.352 0.298667-4.394666 0.170666-4.394667 0.042667h-0.170667l-4.394666-0.042667-4.394667-0.170666-4.352-0.298667-4.309333-0.384-4.266667-0.469333-4.266667-0.597334-4.224-0.682666-4.181333-0.810667-4.138667-0.896-4.096-1.024-4.096-1.109333-4.010666-1.194667-3.968-1.28-3.968-1.408-3.882667-1.450667-3.84-1.578666-3.797333-1.664-3.754667-1.749334-3.712-1.834666-3.669333-1.962667-3.584-2.005333-3.541334-2.090667-3.498666-2.176-3.413334-2.261333-3.370666-2.346667-3.328-2.389333-3.242667-2.517334-3.2-2.56-3.114667-2.645333-3.072-2.730667-2.986666-2.773333-2.944-2.858667-2.858667-2.944-2.773333-2.986666-2.730667-3.072-2.645333-3.114667-2.56-3.2-2.517334-3.242667-2.389333-3.328-2.346667-3.370666-2.261333-3.413334-2.176-3.498666-2.090667-3.541334-2.005333-3.584-1.962667-3.669333-1.834666-3.712-1.749334-3.754667-1.664-3.797333-1.578666-3.84-1.450667-3.882667-1.408-3.968-1.28-3.968-1.194667-4.010666-1.109333-4.096-1.024-4.096-0.896-4.138667-0.810667-4.181333-0.682666-4.224-0.597334-4.266667-0.469333-4.266667-0.384-4.309333-0.298667-4.352-0.170666-4.394667L128 725.418667v-0.170667l0.042667-4.394667 0.170666-4.394666 0.298667-4.352 0.384-4.309334 0.469333-4.266666 0.597334-4.266667 0.682666-4.224 0.810667-4.181333 0.896-4.138667 1.024-4.096 1.109333-4.096 1.194667-4.010667 1.28-3.968 1.408-3.968 1.450667-3.882666 1.578666-3.84 1.664-3.797334 1.749334-3.754666 1.834666-3.712 1.962667-3.669334 2.005333-3.584 2.090667-3.541333 2.176-3.498667 2.261333-3.413333 2.346667-3.370667 2.389333-3.328 2.517334-3.242666 2.56-3.2 2.645333-3.114667 2.730667-3.072 2.773333-2.986667 2.858667-2.944 2.944-2.858666 2.986666-2.773334 3.072-2.730666 3.114667-2.645334 3.2-2.56 3.242667-2.517333 3.328-2.389333 3.370666-2.346667 3.413334-2.261333 3.498666-2.176 3.541334-2.090667 3.584-2.005333 3.669333-1.962667 3.712-1.834667 3.754667-1.749333 3.797333-1.664 3.84-1.578667 3.882667-1.450666 3.968-1.408 3.968-1.28 4.010666-1.194667 4.096-1.109333 4.096-1.024 4.138667-0.896 4.181333-0.810667 4.224-0.682667 4.266667-0.597333 4.266667-0.469333 4.309333-0.384 4.352-0.298667 4.394667-0.170667 4.394666-0.042666h145.194667z m-144.938667 42.666666l-3.584 0.042667-3.285333 0.128-3.285333 0.213333-3.242667 0.298667-3.2 0.341333-3.2 0.469334-3.157333 0.512-3.114667 0.597333-3.114667 0.682667-3.072 0.725333-3.029333 0.853333-3.029333 0.896-2.986667 0.938667-2.944 1.066667-2.901333 1.109333-2.901334 1.152-2.816 1.237333-2.816 1.322667-2.773333 1.365333-2.730667 1.450667-2.730666 1.536-2.645334 1.536-2.602666 1.664-2.56 1.664-2.56 1.792-2.474667 1.792-2.432 1.877333-2.432 1.92-2.346667 2.005334-2.304 2.048-2.218666 2.090666-2.218667 2.133334-2.133333 2.218666-2.090667 2.218667-2.048 2.304-2.005333 2.346667-1.92 2.432-1.877334 2.432-1.792 2.474666-1.792 2.56-1.664 2.56-1.664 2.602667-1.536 2.645333-1.536 2.730667-1.408 2.730667-1.408 2.773333-1.322666 2.816-1.237334 2.816-1.152 2.901333-1.109333 2.901334-1.066667 2.944-0.938666 2.986666-0.896 3.029334-0.853334 3.029333-0.725333 3.072-0.682667 3.114667-0.597333 3.114666-0.512 3.157334-0.469333 3.2-0.341334 3.2-0.298666 3.242666-0.213334 3.285334-0.128 3.285333L170.666667 725.333333l0.042666 3.413334 0.128 3.285333 0.213334 3.285333 0.298666 3.242667 0.341334 3.2 0.469333 3.2 0.512 3.157333 0.597333 3.114667 0.682667 3.114667 0.725333 3.072 0.853334 3.029333 0.896 3.029333 0.938666 2.986667 1.066667 2.944 1.109333 2.901333 1.152 2.901334 1.237334 2.816 1.322666 2.816 1.408 2.773333 1.408 2.730667 1.536 2.730666 1.536 2.645334 1.664 2.602666 1.664 2.56 1.792 2.56 1.792 2.474667 1.877334 2.432 1.92 2.432 2.005333 2.346667 2.048 2.304 2.090667 2.218666 2.133333 2.218667 2.218667 2.133333 2.218666 2.090667 2.304 2.048 2.346667 2.005333 2.432 1.92 2.432 1.877334 2.474667 1.792 2.56 1.792 2.56 1.664 2.602666 1.664 2.645334 1.536 2.730666 1.536 2.730667 1.450666 2.773333 1.365334 2.816 1.322666 2.816 1.237334 2.901334 1.152 2.901333 1.109333 2.944 1.066667 2.986667 0.938666 3.029333 0.896 3.029333 0.853334 3.072 0.725333 3.114667 0.682667 3.114667 0.597333 3.157333 0.512 3.2 0.469333 3.2 0.341334 3.242667 0.298666 3.285333 0.213334 3.285333 0.128L298.666667 853.333333l3.413333-0.042666 3.285333-0.128 3.285334-0.213334 3.242666-0.298666 3.2-0.341334 3.2-0.469333 3.157334-0.512 3.114666-0.597333 3.114667-0.682667 3.072-0.725333 3.029333-0.853334 3.029334-0.896 2.986666-0.938666 2.944-1.066667 2.901334-1.109333 2.901333-1.152 2.816-1.237334 2.816-1.322666 2.773333-1.365334 2.730667-1.450666 2.730667-1.536 2.645333-1.536 2.602667-1.664 2.56-1.664 2.56-1.792 2.474666-1.792 2.432-1.877334 2.432-1.92 2.346667-2.005333 2.304-2.048 2.218667-2.090667 2.218666-2.133333 2.133334-2.218667 2.090666-2.218666 2.048-2.304 2.005334-2.346667 1.92-2.432 1.877333-2.432 1.792-2.474667 1.792-2.56 1.664-2.56 1.664-2.602666 1.536-2.645334 1.536-2.730666 1.450667-2.730667 1.365333-2.773333 1.322667-2.816 1.237333-2.816 1.152-2.901334 1.109333-2.901333 1.066667-2.944 0.938667-2.986667 0.896-3.029333 0.853333-3.029333 0.725333-3.072 0.682667-3.114667 0.597333-3.114667 0.512-3.157333 0.469334-3.2 0.341333-3.2 0.298667-3.242667 0.213333-3.285333 0.128-3.285333 0.042667-3.584V597.333333H298.837333zM729.813333 554.709333l4.394667 0.170667 4.352 0.298667 4.309333 0.384 4.266667 0.469333 4.266667 0.597333 4.224 0.682667 4.181333 0.810667 4.138667 0.896 4.096 1.024 4.096 1.109333 4.010666 1.194667 3.968 1.28 3.968 1.408 3.882667 1.450666 3.84 1.578667 3.797333 1.664 3.754667 1.749333 3.712 1.834667 3.669333 1.962667 3.584 2.005333 3.541334 2.090667 3.498666 2.176 3.413334 2.261333 3.370666 2.346667 3.328 2.389333 3.242667 2.517333 3.2 2.56 3.114667 2.645334 3.072 2.730666 2.986666 2.773334 2.944 2.858666 2.858667 2.944 2.773333 2.986667 2.730667 3.072 2.645333 3.114667 2.56 3.2 2.517334 3.242666 2.389333 3.328 2.346667 3.370667 2.261333 3.413333 2.176 3.498667 2.090667 3.541333 2.005333 3.584 1.962667 3.669334 1.834666 3.712 1.749334 3.754666 1.664 3.797334 1.578666 3.84 1.450667 3.882666 1.408 3.968 1.28 3.968 1.194667 4.010667 1.109333 4.096 1.024 4.096 0.896 4.138667 0.810667 4.181333 0.682666 4.224 0.597334 4.266667 0.469333 4.266666 0.384 4.309334 0.298667 4.352 0.170666 4.394666 0.042667 4.394667v0.170667l-0.042667 4.394666-0.170666 4.394667-0.298667 4.352-0.384 4.309333-0.469333 4.266667-0.597334 4.266667-0.682666 4.224-0.810667 4.181333-0.896 4.138667-1.024 4.096-1.109333 4.096-1.194667 4.010666-1.28 3.968-1.408 3.968-1.450667 3.882667-1.578666 3.84-1.664 3.797333-1.749334 3.754667-1.834666 3.712-1.962667 3.669333-2.005333 3.584-2.090667 3.541334-2.176 3.498666-2.261333 3.413334-2.346667 3.370666-2.389333 3.328-2.517334 3.242667-2.56 3.2-2.645333 3.114667-2.730667 3.072-2.773333 2.986666-2.858667 2.944-2.944 2.858667-2.986666 2.773333-3.072 2.730667-3.114667 2.645333-3.2 2.56-3.242667 2.517334-3.328 2.389333-3.370666 2.346667-3.413334 2.261333-3.498666 2.176-3.541334 2.090667-3.584 2.005333-3.669333 1.962667-3.712 1.834666-3.754667 1.749334-3.797333 1.664-3.84 1.578666-3.882667 1.450667-3.968 1.408-3.968 1.28-4.010666 1.194667-4.096 1.109333-4.096 1.024-4.138667 0.896-4.181333 0.810667-4.224 0.682666-4.266667 0.597334-4.266667 0.469333-4.309333 0.384-4.352 0.298667-4.394667 0.170666-4.394666 0.042667h-0.170667l-4.394667-0.042667-4.394666-0.170666-4.352-0.298667-4.309334-0.384-4.266666-0.469333-4.266667-0.597334-4.224-0.682666-4.181333-0.810667-4.138667-0.896-4.096-1.024-4.096-1.109333-4.010667-1.194667-3.968-1.28-3.968-1.408-3.882666-1.450667-3.84-1.578666-3.797334-1.664-3.754666-1.749334-3.712-1.834666-3.669334-1.962667-3.584-2.005333-3.541333-2.090667-3.498667-2.176-3.413333-2.261333-3.370667-2.346667-3.328-2.389333-3.242666-2.517334-3.2-2.56-3.114667-2.645333-3.072-2.730667-2.986667-2.773333-2.944-2.858667-2.858666-2.944-2.773334-2.986666-2.730666-3.072-2.645334-3.114667-2.56-3.2-2.517333-3.242667-2.389333-3.328-2.346667-3.370666-2.261333-3.413334-2.176-3.498666-2.090667-3.541334-2.005333-3.584-1.962667-3.669333-1.834667-3.712-1.749333-3.754667-1.664-3.797333-1.578667-3.84-1.450666-3.882667-1.408-3.968-1.28-3.968-1.194667-4.010666-1.109333-4.096-1.024-4.096-0.896-4.138667-0.810667-4.181333-0.682667-4.224-0.597333-4.266667-0.469333-4.266667-0.384-4.309333-0.298667-4.352-0.170667-4.394667-0.042666-4.394666v-145.194667l0.042666-1.322667 0.085334-1.28 0.170666-1.28 0.213334-1.28 0.298666-1.237333 0.341334-1.194667 0.384-1.194666 0.469333-1.152 0.512-1.152 0.554667-1.109334 0.64-1.066666 0.64-1.024 0.725333-0.981334 0.768-0.981333 0.810667-0.938667 0.810666-0.896 0.896-0.810666 0.938667-0.810667 0.981333-0.768 0.981334-0.725333 1.024-0.64 1.066666-0.64 1.109334-0.554667 1.152-0.512 1.152-0.469333 1.194666-0.384 1.194667-0.341334 1.237333-0.298666 1.28-0.213334 1.28-0.170666 1.28-0.085334 1.322667-0.042666h145.194667l4.394666 0.042666zM597.333333 597.333333v127.829334l0.042667 3.584 0.128 3.285333 0.213333 3.285333 0.298667 3.242667 0.341333 3.2 0.469334 3.2 0.512 3.157333 0.597333 3.114667 0.682667 3.114667 0.725333 3.072 0.853333 3.029333 0.896 3.029333 0.938667 2.986667 1.066667 2.944 1.109333 2.901333 1.152 2.901334 1.237333 2.816 1.322667 2.816 1.408 2.773333 1.408 2.730667 1.536 2.688 1.536 2.688 1.664 2.602666 1.664 2.56 1.792 2.56 1.792 2.474667 1.877333 2.432 1.92 2.432 2.005334 2.346667 2.048 2.304 2.090666 2.218666 2.133334 2.218667 2.218666 2.133333 2.218667 2.090667 2.304 2.048 2.346667 2.005333 2.432 1.92 2.432 1.877334 2.474666 1.792 2.56 1.792 2.56 1.664 2.602667 1.664 2.645333 1.536 2.730667 1.536 2.730667 1.450666 2.773333 1.365334 2.816 1.322666 2.816 1.237334 2.901333 1.152 2.901334 1.109333 2.944 1.066667 2.986666 0.938666 3.029334 0.896 3.029333 0.853334 3.072 0.725333 3.114667 0.682667 3.114666 0.597333 3.157334 0.512 3.2 0.469333 3.2 0.341334 3.242666 0.298666 3.285334 0.213334 3.285333 0.128L725.333333 853.333333l3.413334-0.042666 3.285333-0.128 3.285333-0.213334 3.242667-0.298666 3.2-0.341334 3.2-0.469333 3.157333-0.512 3.114667-0.597333 3.114667-0.682667 3.072-0.725333 3.029333-0.853334 3.029333-0.896 2.986667-0.938666 2.944-1.066667 2.901333-1.109333 2.901334-1.152 2.816-1.237334 2.816-1.322666 2.773333-1.365334 2.730667-1.450666 2.730666-1.536 2.645334-1.536 2.602666-1.664 2.56-1.664 2.56-1.792 2.474667-1.792 2.432-1.877334 2.432-1.92 2.346667-2.005333 2.304-2.048 2.218666-2.090667 2.218667-2.133333 2.133333-2.218667 2.090667-2.218666 2.048-2.304 2.005333-2.346667 1.92-2.432 1.877334-2.432 1.792-2.474667 1.792-2.56 1.664-2.56 1.664-2.602666 1.536-2.645334 1.536-2.730666 1.450666-2.730667 1.365334-2.773333 1.322666-2.816 1.237334-2.816 1.152-2.901334 1.109333-2.901333 1.066667-2.944 0.938666-2.986667 0.896-3.029333 0.853334-3.029333 0.725333-3.072 0.682667-3.114667 0.597333-3.114667 0.512-3.157333 0.469333-3.2 0.341334-3.2 0.298666-3.242667 0.213334-3.285333 0.128-3.285333L853.333333 725.333333l-0.042666-3.413333-0.128-3.285333-0.213334-3.285334-0.298666-3.242666-0.341334-3.2-0.469333-3.2-0.512-3.157334-0.597333-3.114666-0.682667-3.114667-0.725333-3.072-0.853334-3.029333-0.896-3.029334-0.938666-2.986666-1.066667-2.944-1.109333-2.901334-1.152-2.901333-1.237334-2.816-1.322666-2.816-1.365334-2.773333-1.450666-2.730667-1.536-2.730667-1.536-2.645333-1.664-2.602667-1.664-2.56-1.792-2.56-1.792-2.474666-1.877334-2.432-1.92-2.432-2.005333-2.346667-2.048-2.304-2.090667-2.218667-2.133333-2.218666-2.218667-2.133334-2.218666-2.090666-2.304-2.048-2.346667-2.005334-2.432-1.92-2.432-1.877333-2.474667-1.792-2.56-1.792-2.56-1.664-2.602666-1.664-2.645334-1.536-2.730666-1.536-2.730667-1.450667-2.773333-1.365333-2.816-1.322667-2.816-1.237333-2.901334-1.152-2.901333-1.109333-2.944-1.066667-2.986667-0.938667-3.029333-0.896-3.029333-0.853333-3.072-0.725333-3.114667-0.682667-3.114667-0.597333-3.157333-0.512-3.2-0.469334-3.2-0.341333-3.242667-0.298667-3.285333-0.213333-3.285333-0.128-3.584-0.042667H597.333333z" fill="#d4237a" p-id="18682"></path></svg>