<?xml version="1.0" standalone="no"?><!DOCTYPE svg PUBLIC "-//W3C//DTD SVG 1.1//EN" "http://www.w3.org/Graphics/SVG/1.1/DTD/svg11.dtd"><svg t="1701701538453" class="icon" viewBox="0 0 1024 1024" version="1.1" xmlns="http://www.w3.org/2000/svg" p-id="10209" xmlns:xlink="http://www.w3.org/1999/xlink" width="200" height="200"><path d="M257 310l505 0 0 50-505 0 0-50Z" fill="#ffffff" p-id="10210"></path><path d="M257 511l505 0 0 50-505 0 0-50Z" fill="#ffffff" p-id="10211"></path><path d="M753.2 812c1.3-16.1 12.8-22.9 15.1-24.2 134.6-78.2 215-210.8 215-354.6 0-232.7-210.9-422.1-470.2-422.1C253.9 11.2 43 200.5 43 433.2c0 228.6 203.6 415.4 456.6 421.9 27.6 40.3 129.7 161 364.6 161 10.4 0 19.7-6.6 23.1-16.5 3.4-9.8 0.2-20.8-8-27.2C761.3 879.5 751.8 829.3 753.2 812zM534.7 819.2c-4.3-7.9-12.5-12.9-21.6-12.9C280.9 806.3 91.9 639 91.9 433.2s189-373.1 421.3-373.1 421.3 167.4 421.3 373.1c0 126.2-71.3 242.9-189.2 311.5-13.4 6.6-36.9 27-40.5 61.3-4.6 44.4 25.1 97 88.4 156.8C602.9 939.2 537.6 824.5 534.7 819.2z" fill="#ffffff" p-id="10212"></path></svg>